<svg xmlns="http://www.w3.org/2000/svg" width="61" height="60" viewBox="0 0 61 60" fill="none">
<path d="M10.918 45C10.2096 45 9.61631 44.76 9.13798 44.28C8.65964 43.8 8.41964 43.2067 8.41798 42.5C8.41631 41.7933 8.65631 41.2 9.13798 40.72C9.61964 40.24 10.213 40 10.918 40H50.918C51.6263 40 52.2205 40.24 52.7005 40.72C53.1805 41.2 53.4196 41.7933 53.418 42.5C53.4163 43.2067 53.1763 43.8008 52.698 44.2825C52.2196 44.7642 51.6263 45.0033 50.918 45H10.918ZM10.918 32.5C10.2096 32.5 9.61631 32.26 9.13798 31.78C8.65964 31.3 8.41964 30.7067 8.41798 30C8.41631 29.2933 8.65631 28.7 9.13798 28.22C9.61964 27.74 10.213 27.5 10.918 27.5H50.918C51.6263 27.5 52.2205 27.74 52.7005 28.22C53.1805 28.7 53.4196 29.2933 53.418 30C53.4163 30.7067 53.1763 31.3008 52.698 31.7825C52.2196 32.2642 51.6263 32.5033 50.918 32.5H10.918ZM10.918 20C10.2096 20 9.61631 19.76 9.13798 19.28C8.65964 18.8 8.41964 18.2067 8.41798 17.5C8.41631 16.7933 8.65631 16.2 9.13798 15.72C9.61964 15.24 10.213 15 10.918 15H50.918C51.6263 15 52.2205 15.24 52.7005 15.72C53.1805 16.2 53.4196 16.7933 53.418 17.5C53.4163 18.2067 53.1763 18.8008 52.698 19.2825C52.2196 19.7642 51.6263 20.0033 50.918 20H10.918Z" fill="#006964"/>
</svg>